# xmcd
#
# Track frame offsets:
#	150
#	13350
#	32151
#	52610
#	80333
#	100762
#
# Disc length: 1564 seconds
#
# Revision: 393212
# Processed by: cddbd v1.5.2PL0 Copyright (c) Steve Scherf et al.
# Submitted via: EZCDAudioConverter 8.0.1.1
#
DISCID=3c061a06
DTITLE=Forlorn Strangers - While The Grass Grows
DYEAR=2013
DGENRE=Country
TTITLE0=While The Grass Grows
TTITLE1=Settle Me Down
TTITLE2=What I Don't Remember
TTITLE3=Nobody Tells You
TTITLE4=Cleveland
TTITLE5=Rollin On Down
EXTD=
EXTT0=
EXTT1=
EXTT2=
EXTT3=
EXTT4=
EXTT5=
PLAYORDER=
